<?xml version="1.0" standalone="no"?>
<!DOCTYPE svg PUBLIC "-//W3C//DTD SVG 20010904//EN"
 "http://www.w3.org/TR/2001/REC-SVG-20010904/DTD/svg10.dtd">
<svg version="1.0" xmlns="http://www.w3.org/2000/svg"
 width="512.000000pt" height="512.000000pt" viewBox="0 0 512.000000 512.000000"
 preserveAspectRatio="xMidYMid meet">

<g transform="translate(0.000000,512.000000) scale(0.100000,-0.100000)"
fill="#000000" stroke="none">
<path d="M2774 4038 c-201 -137 -239 -167 -242 -190 -2 -20 5 -32 30 -51 86
-64 426 -291 450 -300 44 -18 58 3 58 89 l0 73 250 3 c188 2 252 6 262 16 10
10 13 54 13 168 0 142 -2 157 -19 170 -16 11 -69 14 -263 14 l-243 0 0 75 c0
63 -3 76 -19 85 -11 5 -24 10 -29 10 -4 0 -116 -73 -248 -162z m206 -36 c0
-26 5 -53 12 -60 9 -9 80 -12 260 -12 l248 0 0 -85 0 -85 -248 0 c-180 0 -251
-3 -260 -12 -7 -7 -12 -34 -12 -61 0 -40 -3 -48 -15 -43 -38 14 -296 199 -288
207 15 15 288 199 296 199 4 0 7 -22 7 -48z"/>
<path d="M927 3202 c-12 -13 -17 -37 -17 -80 l0 -62 -243 0 c-176 0 -246 -3
-255 -12 -17 -17 -17 -899 0 -916 9 -9 79 -12 255 -12 l243 0 0 -63 c0 -102
-9 -98 251 -108 123 -4 265 -8 314 -8 l90 0 104 89 105 90 362 0 c349 0 364 1
374 19 6 13 10 172 10 448 0 372 -2 431 -16 451 l-15 22 -361 0 -360 0 -105
80 -106 80 -307 0 c-285 0 -308 -1 -323 -18z m705 -162 l103 -80 343 0 342 0
0 -375 0 -375 -346 0 -346 0 -99 -85 -98 -85 -79 0 c-43 0 -161 3 -260 7
l-182 6 0 34 0 33 219 0 c216 0 220 0 235 22 14 19 16 78 16 443 0 318 -3 426
-13 445 l-13 25 -222 3 -222 2 0 30 0 30 260 0 260 0 102 -80z m-254 -452 l-3
-373 -440 0 -440 0 -3 373 -2 372 445 0 445 0 -2 -372z"/>
<path d="M1943 2860 l-23 -9 0 -265 c0 -252 1 -266 19 -276 11 -5 87 -10 174
-10 136 0 156 2 170 18 15 16 17 50 17 263 0 196 -3 249 -14 265 -13 17 -29
19 -168 21 -84 1 -163 -2 -175 -7z m257 -275 l0 -185 -95 0 -95 0 0 185 0 185
95 0 95 0 0 -185z"/>
<path d="M3111 3136 c-143 -50 -239 -90 -247 -101 -20 -26 -21 -873 -1 -897 6
-9 116 -52 243 -97 l231 -81 441 0 c506 0 462 -9 462 99 l0 61 228 0 c164 0
231 3 240 12 17 17 17 899 0 916 -9 9 -76 12 -240 12 l-228 0 0 63 c0 104 33
97 -466 96 l-429 0 -234 -83z m1029 -551 l0 -535 -382 0 -383 0 -210 74 -210
74 -3 389 -2 389 202 72 203 71 393 0 392 1 0 -535z m488 3 l-3 -373 -192 -3
-193 -2 0 375 0 375 195 0 195 0 -2 -372z"/>
<path d="M2077 1602 c-12 -13 -17 -37 -17 -85 l0 -67 -238 0 c-199 0 -241 -3
-260 -16 -21 -14 -22 -22 -22 -163 0 -111 3 -152 14 -167 13 -18 30 -19 260
-22 l246 -3 0 -68 c0 -70 16 -101 51 -101 22 0 483 317 493 339 4 11 4 26 -1
35 -12 22 -474 336 -494 336 -9 0 -23 -8 -32 -18z m236 -229 c78 -53 146 -99
150 -103 7 -6 -282 -210 -297 -210 -3 0 -6 18 -6 41 0 82 11 79 -270 79 l-250
0 0 85 0 85 244 0 c278 0 276 -1 276 76 0 24 3 44 6 44 3 0 69 -43 147 -97z"/>
</g>
</svg>
